<?xml version="1.0" encoding="utf-8"?>
<!-- Generator: Adobe Illustrator 23.1.0, SVG Export Plug-In . SVG Version: 6.00 Build 0)  -->
<svg version="1.1" id="Layer_1" xmlns="http://www.w3.org/2000/svg" xmlns:xlink="http://www.w3.org/1999/xlink" x="0px" y="0px"
	 viewBox="0 0 32 32" style="enable-background:new 0 0 32 32;" xml:space="preserve">
<style type="text/css">
	.st0{fill:#212427;}
</style>
<path class="st0" d="M23.7,9.1L23.7,9.1c0-0.9,0-1.5,0-1.5H8.3c0,0,0,0.6,0.1,1.5H8.3c-2.5,0-4.5,1.6-4.5,3.7c0,2,2,3.7,4.5,3.7
	c0.9,0,1.7-0.2,2.3-0.5c1,1.4,2.5,2.5,4.5,2.8v1.8h-4.3v2.1H8.3v1.7h15.4v-1.7h-2.6v-2.1h-4.3v-1.8c2.1-0.2,3.5-1.3,4.5-2.8
	c0.7,0.3,1.5,0.5,2.3,0.5c2.5,0,4.5-1.6,4.5-3.7C28.2,10.8,26.2,9.1,23.7,9.1z M8.3,15.2c-1.8,0-3.2-1.1-3.2-2.4
	c0-1.3,1.5-2.4,3.2-2.4c0.1,0,0.2,0,0.3,0c0.2,1.3,0.6,3,1.4,4.4C9.4,15,8.9,15.2,8.3,15.2z M23.7,15.2c-0.6,0-1.2-0.1-1.7-0.4
	c0.7-1.5,1.2-3.1,1.4-4.4c0.1,0,0.2,0,0.3,0c1.8,0,3.2,1.1,3.2,2.4C27,14.1,25.5,15.2,23.7,15.2z"/>
</svg>
