<?xml version="1.0" encoding="utf-8"?>
<!-- Generator: Adobe Illustrator 23.1.0, SVG Export Plug-In . SVG Version: 6.00 Build 0)  -->
<svg version="1.1" id="Layer_1" xmlns="http://www.w3.org/2000/svg" xmlns:xlink="http://www.w3.org/1999/xlink" x="0px" y="0px"
	 viewBox="0 0 32 32" style="enable-background:new 0 0 32 32;" xml:space="preserve">
<style type="text/css">
	.st0{fill:#212427;}
</style>
<g>
	<path class="st0" d="M12.2,12.8H9.8c-1.1,0-2,0.9-2,2v2.4c0,1.1,0.9,2,2,2h2.4c1.1,0,2-0.9,2-2v-2.4C14.2,13.7,13.3,12.8,12.2,12.8
		z"/>
	<path class="st0" d="M22.2,12.8h-2.4c-1.1,0-2,0.9-2,2v2.4c0,1.1,0.9,2,2,2h2.4c1.1,0,2-0.9,2-2v-2.4
		C24.2,13.7,23.3,12.8,22.2,12.8z"/>
</g>
</svg>
