<?xml version="1.0" encoding="utf-8"?>
<!-- Generator: Adobe Illustrator 23.1.0, SVG Export Plug-In . SVG Version: 6.00 Build 0)  -->
<svg version="1.1" id="Layer_1" xmlns="http://www.w3.org/2000/svg" xmlns:xlink="http://www.w3.org/1999/xlink" x="0px" y="0px"
	 viewBox="0 0 32 32" style="enable-background:new 0 0 32 32;" xml:space="preserve">
<style type="text/css">
	.st0{fill:#212427;}
</style>
<g>
	<path class="st0" d="M12.4,17H10c-1.1,0-2,0.9-2,2v2.4c0,1.1,0.9,2,2,2h2.4c1.1,0,2-0.9,2-2V19C14.4,17.9,13.5,17,12.4,17z"/>
	<path class="st0" d="M22,17h-2.4c-1.1,0-2,0.9-2,2v2.4c0,1.1,0.9,2,2,2H22c1.1,0,2-0.9,2-2V19C24,17.9,23.1,17,22,17z"/>
	<path class="st0" d="M17.2,8.6h-2.4c-1.1,0-2,0.9-2,2V13c0,1.1,0.9,2,2,2h2.4c1.1,0,2-0.9,2-2v-2.4C19.2,9.5,18.3,8.6,17.2,8.6z"/>
</g>
</svg>
